<svg width="22" height="22" viewBox="0 0 22 22" fill="none" xmlns="http://www.w3.org/2000/svg">
<path d="M12.9917 7.33776L11.7886 5.2435C11.4376 4.63244 10.557 4.62952 10.202 5.23823L8.91995 7.43598C8.65571 7.88896 8.21013 8.2071 7.6959 8.30994L6.11583 8.62596C5.40982 8.76716 5.13472 9.62982 5.62864 10.1537L6.75996 11.3535C7.18155 11.8007 7.35106 12.4293 7.21142 13.0278L6.67549 15.3246C6.49205 16.1108 7.34097 16.7331 8.0355 16.3215L10.0652 15.1188C10.6415 14.7772 11.3582 14.7772 11.9345 15.1188L13.9642 16.3215C14.6587 16.7331 15.5076 16.1108 15.3242 15.3246L14.7804 12.9943C14.6451 12.4144 14.7999 11.8048 15.1956 11.3597L16.3548 10.0556C16.8251 9.52651 16.5436 8.68662 15.8494 8.54778L14.2218 8.22226C13.7034 8.11858 13.255 7.79616 12.9917 7.33776Z" stroke="#437EF7" stroke-width="1.67"/>
<path d="M21.0832 11.0001C21.0832 16.569 16.5687 21.0834 10.9998 21.0834C5.43097 21.0834 0.916504 16.569 0.916504 11.0001C0.916504 5.43121 5.43097 0.916748 10.9998 0.916748C16.5687 0.916748 21.0832 5.43121 21.0832 11.0001Z" stroke="#437EF7" stroke-width="1.67"/>
</svg>
