<svg width="17" height="21" viewBox="0 0 17 21" fill="none" xmlns="http://www.w3.org/2000/svg">
<path d="M5.25016 18.0086C5.92203 18.7698 6.90503 19.2499 8.00016 19.2499C9.0953 19.2499 10.0783 18.7698 10.7502 18.0086M11.6668 1.77417C13.8549 2.86155 15.4917 4.89178 16.0457 7.33328M13.4978 12.0824V9.1667C13.4978 6.12127 11.0456 3.6667 8.00016 3.6667C4.95474 3.6667 2.46933 6.01663 2.46933 9.1667V12.0627C2.46933 12.5056 2.4003 12.9456 2.2649 13.3658L1.58797 15.4663C1.56943 15.5238 1.61082 15.5832 1.66944 15.5832H14.2914C14.3534 15.5832 14.3974 15.5229 14.3784 15.4639L13.6968 13.349C13.5649 12.9398 13.4978 12.5124 13.4978 12.0824Z" stroke="#5F6D7E" stroke-width="1.67" stroke-linecap="round"/>
</svg>
