<svg width="16" height="18" viewBox="0 0 16 18" fill="none" xmlns="http://www.w3.org/2000/svg">
<path d="M14.8781 14.511L15.6881 14.3085L15.6881 14.3085L14.8781 14.511ZM14.6947 13.7777L13.8847 13.9802L13.8847 13.9802L14.6947 13.7777ZM1.30594 13.7777L0.495868 13.5752L1.30594 13.7777ZM1.1226 14.511L1.93267 14.7135L1.1226 14.511ZM1.94432 12.7383L1.62089 11.9685H1.62089L1.94432 12.7383ZM1.56563 13.034L2.23401 13.5345H2.23401L1.56563 13.034ZM14.4351 13.034L13.7667 13.5345L13.7667 13.5345L14.4351 13.034ZM14.0564 12.7383L14.3798 11.9685H14.3798L14.0564 12.7383ZM14.6346 16.2007L14.202 15.4866H14.2019L14.6346 16.2007ZM15.0354 15.6874L15.8332 15.934V15.934L15.0354 15.6874ZM1.36605 16.2007L1.79873 15.4866H1.79873L1.36605 16.2007ZM0.96526 15.6874L1.76303 15.4409L1.76303 15.4409L0.96526 15.6874ZM7.34443 1.07804L6.971 0.331188V0.331188L7.34443 1.07804ZM1.97883 3.76083L2.35226 4.50768L1.97883 3.76083ZM1.32292 5.72857L0.576074 6.10199L0.576074 6.10199L1.32292 5.72857ZM1.48233 6.04739L2.22918 5.67397L2.22918 5.67397L1.48233 6.04739ZM14.5184 6.04739L13.7715 5.67397L13.7715 5.67397L14.5184 6.04739ZM14.6778 5.72857L13.9309 5.35515L13.9309 5.35515L14.6778 5.72857ZM14.0218 3.76083L14.3953 3.01399L14.0218 3.76083ZM8.65625 1.07804L9.02968 0.331188L8.65625 1.07804ZM15.0205 4.81973L15.8555 4.81339V4.81339L15.0205 4.81973ZM14.8413 4.28227L14.1695 4.77819L14.1695 4.77819L14.8413 4.28227ZM1.15936 4.28227L0.487573 3.78636L0.487573 3.78636L1.15936 4.28227ZM0.980204 4.81973L0.145228 4.81339V4.81339L0.980204 4.81973ZM14.3501 6.23755L14.0778 5.44819L14.0778 5.44819L14.3501 6.23755ZM14.4357 6.18463L15.02 6.78118L15.02 6.78117L14.4357 6.18463ZM1.65058 6.23755L1.92285 5.44819H1.92285L1.65058 6.23755ZM1.56495 6.18463L0.980687 6.78117L0.980691 6.78117L1.56495 6.18463ZM7.83131 0.873996L7.67734 0.0533144L7.83131 0.873996ZM8.16937 0.873996L8.32334 0.0533144L8.16937 0.873996ZM2.58201 11.7501C2.58201 12.2112 2.95585 12.5851 3.41701 12.5851C3.87817 12.5851 4.25201 12.2112 4.25201 11.7501H2.58201ZM4.25201 6.25008C4.25201 5.78892 3.87817 5.41508 3.41701 5.41508C2.95585 5.41508 2.58201 5.78892 2.58201 6.25008H4.25201ZM7.16534 11.7501C7.16534 12.2112 7.53918 12.5851 8.00034 12.5851C8.4615 12.5851 8.83534 12.2112 8.83534 11.7501H7.16534ZM8.83534 7.16675C8.83534 6.70559 8.4615 6.33175 8.00034 6.33175C7.53918 6.33175 7.16534 6.70559 7.16534 7.16675H8.83534ZM11.7487 11.7501C11.7487 12.2112 12.1225 12.5851 12.5837 12.5851C13.0448 12.5851 13.4187 12.2112 13.4187 11.7501H11.7487ZM13.4187 7.16675C13.4187 6.70559 13.0448 6.33175 12.5837 6.33175C12.1225 6.33175 11.7487 6.70559 11.7487 7.16675H13.4187ZM2.54548 17.1684H13.4552V15.4984H2.54548V17.1684ZM15.6881 14.3085L15.5048 13.5752L13.8847 13.9802L14.068 14.7135L15.6881 14.3085ZM13.2719 11.8317H2.72881V13.5017H13.2719V11.8317ZM0.495868 13.5752L0.312534 14.3085L1.93267 14.7135L2.11601 13.9802L0.495868 13.5752ZM2.72881 11.8317C2.3969 11.8317 1.98426 11.8158 1.62089 11.9685L2.26775 13.5081C2.23701 13.521 2.23105 13.514 2.30714 13.5085C2.39373 13.5022 2.51216 13.5017 2.72881 13.5017V11.8317ZM2.11601 13.9802C2.16855 13.77 2.19776 13.6553 2.22484 13.5728C2.24864 13.5003 2.254 13.5078 2.23401 13.5345L0.897236 12.5335C0.660999 12.849 0.576368 13.2532 0.495868 13.5752L2.11601 13.9802ZM1.62089 11.9685C1.33373 12.0891 1.08393 12.2842 0.897236 12.5335L2.23401 13.5345C2.24272 13.5228 2.25436 13.5137 2.26775 13.5081L1.62089 11.9685ZM15.5048 13.5752C15.4243 13.2532 15.3397 12.849 15.1034 12.5335L13.7667 13.5345C13.7467 13.5078 13.752 13.5003 13.7758 13.5728C13.8029 13.6553 13.8321 13.77 13.8847 13.9802L15.5048 13.5752ZM13.2719 13.5017C13.4885 13.5017 13.607 13.5022 13.6935 13.5085C13.7696 13.514 13.7637 13.521 13.7329 13.5081L14.3798 11.9685C14.0164 11.8158 13.6038 11.8317 13.2719 11.8317V13.5017ZM15.1034 12.5335C14.9168 12.2842 14.667 12.0891 14.3798 11.9685L13.7329 13.5081C13.7463 13.5137 13.758 13.5228 13.7667 13.5345L15.1034 12.5335ZM13.4552 17.1684C13.76 17.1684 14.0436 17.1692 14.2765 17.1486C14.5156 17.1274 14.7985 17.0778 15.0673 16.9149L14.2019 15.4866C14.2518 15.4564 14.2651 15.4731 14.1293 15.4851C13.9873 15.4976 13.7907 15.4984 13.4552 15.4984V17.1684ZM14.068 14.7135C14.1494 15.039 14.1963 15.2299 14.2186 15.3708C14.2399 15.5054 14.2204 15.4966 14.2377 15.4409L15.8332 15.934C15.926 15.6337 15.9056 15.3472 15.8681 15.1101C15.8316 14.8792 15.7621 14.6042 15.6881 14.3085L14.068 14.7135ZM15.0673 16.9149C15.4341 16.6927 15.7066 16.3437 15.8332 15.934L14.2377 15.4409C14.2318 15.46 14.219 15.4762 14.202 15.4866L15.0673 16.9149ZM2.54548 15.4984C2.21 15.4984 2.01338 15.4976 1.87135 15.4851C1.73554 15.4731 1.74885 15.4564 1.79873 15.4866L0.933357 16.9149C1.20221 17.0778 1.48509 17.1274 1.72418 17.1486C1.95704 17.1692 2.24065 17.1684 2.54548 17.1684V15.4984ZM0.312534 14.3085C0.238602 14.6042 0.169071 14.8792 0.13258 15.1101C0.0951144 15.3472 0.0746706 15.6337 0.167494 15.934L1.76303 15.4409C1.78025 15.4966 1.76083 15.5054 1.78211 15.3708C1.80437 15.2299 1.85131 15.039 1.93267 14.7135L0.312534 14.3085ZM1.79873 15.4866C1.78163 15.4762 1.76893 15.46 1.76303 15.4409L0.167494 15.934C0.294114 16.3437 0.566614 16.6927 0.933357 16.9149L1.79873 15.4866ZM1.81029 7.08508H14.1904V5.41508H1.81029V7.08508ZM6.971 0.331188L1.60541 3.01399L2.35226 4.50768L7.71785 1.82488L6.971 0.331188ZM0.576074 6.10199L0.735483 6.42081L2.22918 5.67397L2.06977 5.35515L0.576074 6.10199ZM15.2652 6.42081L15.4246 6.10199L13.9309 5.35515L13.7715 5.67397L15.2652 6.42081ZM14.3953 3.01399L9.02968 0.331188L8.28283 1.82488L13.6484 4.50768L14.3953 3.01399ZM15.4246 6.102C15.5332 5.88473 15.6378 5.67715 15.7106 5.49585C15.7871 5.30547 15.8575 5.07755 15.8555 4.81339L14.1855 4.82607C14.1852 4.78198 14.1989 4.77889 14.1611 4.87312C14.1196 4.97642 14.0519 5.11323 13.9309 5.35515L15.4246 6.102ZM13.6484 4.50768C13.8903 4.62864 14.0266 4.69748 14.1218 4.75521C14.2086 4.80788 14.1957 4.81366 14.1695 4.77819L15.5131 3.78636C15.3562 3.57383 15.1632 3.43369 14.9878 3.3273C14.8207 3.22597 14.6125 3.12262 14.3953 3.01399L13.6484 4.50768ZM15.8555 4.81339C15.8526 4.44349 15.7328 4.08397 15.5131 3.78636L14.1695 4.77819C14.1798 4.79206 14.1854 4.80882 14.1855 4.82607L15.8555 4.81339ZM1.60541 3.01399C1.38814 3.12262 1.17998 3.22597 1.01292 3.3273C0.837483 3.43369 0.644464 3.57383 0.487573 3.78636L1.83114 4.77819C1.80495 4.81366 1.79208 4.80787 1.87892 4.75521C1.97411 4.69748 2.11034 4.62864 2.35226 4.50768L1.60541 3.01399ZM2.06977 5.35515C1.94881 5.11323 1.88113 4.97642 1.83961 4.87312C1.80174 4.77889 1.81551 4.78198 1.81518 4.82607L0.145228 4.81339C0.143223 5.07755 0.213556 5.30547 0.290064 5.49585C0.362925 5.67715 0.46744 5.88473 0.576074 6.10199L2.06977 5.35515ZM0.487573 3.78636C0.267877 4.08397 0.148036 4.44349 0.145228 4.81339L1.81518 4.82607C1.81531 4.80883 1.8209 4.79206 1.83114 4.77819L0.487573 3.78636ZM14.1904 7.08508C14.2121 7.08508 14.4222 7.09597 14.6224 7.02692L14.0778 5.44819C14.1566 5.42102 14.2188 5.41617 14.2355 5.41513C14.2428 5.41468 14.2444 5.41483 14.2347 5.41495C14.2249 5.41507 14.2124 5.41508 14.1904 5.41508V7.08508ZM13.7715 5.67397C13.7617 5.69367 13.7561 5.70481 13.7516 5.71356C13.7471 5.72217 13.7477 5.72067 13.7514 5.71433C13.7598 5.69987 13.7919 5.64641 13.8515 5.5881L15.02 6.78117C15.1713 6.63298 15.2555 6.44026 15.2652 6.42081L13.7715 5.67397ZM14.6224 7.02692C14.7715 6.97548 14.9073 6.89154 15.02 6.78118L13.8515 5.58809C13.9156 5.52526 13.9929 5.47747 14.0778 5.44819L14.6224 7.02692ZM1.81029 5.41508C1.78825 5.41508 1.77579 5.41507 1.76595 5.41495C1.75626 5.41483 1.75787 5.41468 1.76518 5.41513C1.78187 5.41617 1.84407 5.42102 1.92285 5.44819L1.37831 7.02692C1.57852 7.09597 1.78856 7.08508 1.81029 7.08508V5.41508ZM0.735483 6.42081C0.745201 6.44025 0.829387 6.63298 0.980687 6.78117L2.14922 5.5881C2.20876 5.64641 2.24091 5.69988 2.2493 5.71434C2.25298 5.72067 2.25356 5.72218 2.24912 5.71356C2.24461 5.70481 2.23903 5.69367 2.22918 5.67397L0.735483 6.42081ZM1.92285 5.44819C2.00774 5.47747 2.08506 5.52526 2.14922 5.58809L0.980691 6.78117C1.09338 6.89154 1.2292 6.97548 1.37831 7.02692L1.92285 5.44819ZM7.71785 1.82488C7.84574 1.76094 7.91307 1.72757 7.9639 1.70546C8.00668 1.68684 8.00536 1.69091 7.98528 1.69468L7.67734 0.0533144C7.40931 0.1036 7.16822 0.232583 6.971 0.331188L7.71785 1.82488ZM9.02968 0.331188C8.83247 0.232583 8.59137 0.1036 8.32334 0.0533144L8.0154 1.69468C7.99532 1.69091 7.994 1.68684 8.03678 1.70546C8.08761 1.72757 8.15494 1.76094 8.28283 1.82488L9.02968 0.331188ZM7.98528 1.69468C7.99523 1.69281 8.00545 1.69281 8.0154 1.69468L8.32334 0.0533144C8.10987 0.0132638 7.89081 0.0132636 7.67734 0.0533144L7.98528 1.69468ZM4.25201 11.7501V6.25008H2.58201V11.7501H4.25201ZM8.83534 11.7501V7.16675H7.16534V11.7501H8.83534ZM13.4187 11.7501V7.16675H11.7487V11.7501H13.4187Z" fill="#5F6D7E"/>
</svg>
