<svg width="18" height="20" viewBox="0 0 18 20" fill="none" xmlns="http://www.w3.org/2000/svg">
<path d="M3.49984 5.41667H2.58317C2.07691 5.41667 1.6665 5.82707 1.6665 6.33333C1.6665 6.83959 2.07691 7.25 2.58317 7.25H3.49984M3.49984 12.75H2.58317C2.07691 12.75 1.6665 13.1604 1.6665 13.6667C1.6665 14.1729 2.07691 14.5833 2.58317 14.5833H3.49984M16.3332 15.6137C15.0822 13.3592 12.6775 11.8333 9.9165 11.8333C7.15548 11.8333 4.75084 13.3592 3.49984 15.6137M6.43317 18.25H13.3998C14.4266 18.25 14.94 18.25 15.3322 18.0502C15.6771 17.8744 15.9576 17.5939 16.1333 17.249C16.3332 16.8568 16.3332 16.3434 16.3332 15.3167V4.68333C16.3332 3.65657 16.3332 3.14319 16.1333 2.75102C15.9576 2.40605 15.6771 2.12559 15.3322 1.94982C14.94 1.75 14.4266 1.75 13.3998 1.75H6.43317C5.40641 1.75 4.89303 1.75 4.50085 1.94982C4.15589 2.12559 3.87543 2.40605 3.69966 2.75102C3.49984 3.14319 3.49984 3.65657 3.49984 4.68333V15.3167C3.49984 16.3434 3.49984 16.8568 3.69966 17.249C3.87543 17.5939 4.15589 17.8744 4.50085 18.0502C4.89303 18.25 5.40641 18.25 6.43317 18.25ZM12.7009 8.2012C12.7009 9.73906 11.4543 10.9857 9.91641 10.9857C8.37855 10.9857 7.13187 9.73906 7.13187 8.2012C7.13187 6.66335 8.37855 5.41667 9.91641 5.41667C11.4543 5.41667 12.7009 6.66335 12.7009 8.2012Z" stroke="#5F6D7E" stroke-width="1.67"/>
</svg>
