<svg width="22" height="22" viewBox="0 0 22 22" fill="none" xmlns="http://www.w3.org/2000/svg">
<path d="M17.9736 17.5943C17.61 16.8819 17.1302 16.2136 16.5341 15.6176C13.4777 12.5611 8.52214 12.5611 5.46567 15.6176C4.8696 16.2136 4.38978 16.8819 4.0262 17.5943M0.916504 11.0001C0.916504 5.43121 5.43097 0.916748 10.9998 0.916748C16.5687 0.916749 21.0832 5.43121 21.0832 11.0001C21.0832 16.569 16.5687 21.0834 10.9998 21.0834C5.43097 21.0834 0.916503 16.5689 0.916504 11.0001ZM14.6665 9.16675C14.6665 11.1918 13.0249 12.8334 10.9998 12.8334C8.97479 12.8334 7.33317 11.1918 7.33317 9.16675C7.33317 7.1417 8.97479 5.50008 10.9998 5.50008C13.0249 5.50008 14.6665 7.1417 14.6665 9.16675Z" stroke="#5F6D7E" stroke-width="1.67"/>
</svg>
